<svg width="159" height="159" viewBox="0 0 159 159" fill="none" xmlns="http://www.w3.org/2000/svg">
    <rect width="159" height="159" fill="url(#paint0_linear_5921_2185)"/>
    <path d="M104.801 93.2919C102.21 89.0471 98.582 85.8526 94.4254 83.7086V73.795C94.4254 65.7331 88.212 59.1763 80.5721 59.1763C72.9322 59.1763 66.7135 65.7331 66.7135 73.795V83.6761C62.4928 85.8364 58.8118 89.0633 56.1886 93.3677V77.2818H56.2046V72.8583C56.2153 56.0685 68.8291 48.4235 80.5454 48.4235C87.6136 48.4235 94.1957 51.0982 98.6087 55.7653C102.717 60.1076 104.79 65.8576 104.779 72.842L104.795 77.2764H104.801V93.2919ZM104.801 108.539L94.4254 108.566V87.7206C96.1885 88.7926 97.8073 90.0487 99.2017 91.5214C101.932 94.4073 103.812 98.0078 104.801 102.123V108.539ZM90.2369 81.9435C87.1221 80.9148 83.8418 80.3788 80.5508 80.3788C77.2758 80.3788 74.0114 80.9094 70.9127 81.9273V73.795C70.9127 68.1641 75.2402 63.5998 80.5775 63.5998C85.9147 63.5998 90.2422 68.1641 90.2422 73.795V81.9435H90.2369ZM90.2369 97.4609C87.8541 94.6671 84.4081 92.8967 80.5721 92.8967C76.7362 92.8967 73.2955 94.6671 70.9074 97.4609V85.6631C74.0114 84.4991 77.3078 83.9197 80.5454 83.9197C83.9433 83.9197 87.2236 84.5424 90.2315 85.6794V97.4609H90.2369ZM66.7135 108.566L56.1886 108.539V102.253C57.8127 95.4739 61.7662 90.666 66.7135 87.6827V108.566ZM108.973 72.8529C109.011 53.6104 94.7887 44 80.5508 44C66.2967 44 52.0267 53.6267 52.0214 72.8529H52V109.232V111.23C52 112.21 52.748 113 53.6776 113H69.2352C70.1648 113 70.9127 112.21 70.9127 111.23V107.06C70.9127 101.478 74.9891 96.6055 80.2783 96.4376C85.7544 96.2644 90.2369 100.894 90.2369 106.633V111.23C90.2369 112.21 90.9848 113 91.9144 113H107.322C108.252 113 109 112.21 109 111.23V109.232V72.8529H108.973Z" fill="#E7E3E0"/>
    <defs>
        <linearGradient id="paint0_linear_5921_2185" x1="79.5" y1="0" x2="79.5" y2="159" gradientUnits="userSpaceOnUse">
            <stop stop-color="#F15A29"/>
            <stop offset="1" stop-color="#DF4D1E"/>
        </linearGradient>
    </defs>
</svg>
