<svg width="159" height="159" viewBox="0 0 159 159" fill="none" xmlns="http://www.w3.org/2000/svg">
    <rect width="159" height="159" fill="url(#paint0_linear_3070_1202)"/>
    <path d="M112.412 95.1681C105.341 81.0655 98.4106 66.906 91.4521 52.7464C89.48 48.7009 86.7191 45.6809 82.2961 44.4558C81.2256 44.1425 80.0987 44 79 44C77.9013 44 76.7744 44.1425 75.7039 44.4558C71.2527 45.7094 68.52 48.7293 66.5479 52.7749C59.5894 66.9345 52.6591 81.094 45.5879 95.1965C40.6296 105.083 48.0107 115.197 57.6737 114.997C64.7731 114.855 93.2269 114.855 100.326 114.997C109.989 115.168 117.37 105.083 112.412 95.1681ZM108.581 102.405C107.961 106.82 104.862 109.499 100.383 109.527C93.2832 109.556 64.7167 109.556 57.6174 109.527C53.138 109.499 50.0391 106.82 49.4193 102.405C49.1094 100.268 50.0391 98.4444 50.9406 96.621C57.8709 82.604 64.8013 68.6154 71.7316 54.5698C73.3938 51.208 75.6475 49.584 79 49.5556C82.3525 49.584 84.6344 51.208 86.2684 54.5698C93.1706 68.5869 100.101 82.604 107.031 96.621C107.961 98.4444 108.891 100.268 108.581 102.405Z" fill="white"/>
    <defs>
        <linearGradient id="paint0_linear_3070_1202" x1="79.5" y1="0" x2="79.5" y2="159" gradientUnits="userSpaceOnUse">
            <stop stop-color="#60AC37"/>
            <stop offset="1" stop-color="#406A26"/>
        </linearGradient>
    </defs>
</svg>
