<svg width="158" height="158" viewBox="0 0 158 158" fill="none" xmlns="http://www.w3.org/2000/svg">
    <rect width="158" height="158" fill="url(#paint0_linear_3070_1185)"/>
    <path fill-rule="evenodd" clip-rule="evenodd" d="M61.3171 108H49.7151C47.2772 108 46.073 108 45.3387 107.54C44.5456 107.036 44.061 106.202 44.0023 105.28C43.9582 104.432 44.5604 103.396 45.7646 101.324L74.4113 51.8525C75.6303 49.7518 76.247 48.7014 77.0254 48.3129C77.8625 47.8957 78.8612 47.8957 79.6983 48.3129C80.4767 48.7014 81.0935 49.7518 82.3124 51.8525L88.2016 61.9246L88.2316 61.976C89.5481 64.2297 90.2158 65.3725 90.5073 66.572C90.8303 67.8814 90.8303 69.2627 90.5073 70.5721C90.2135 71.7807 89.5527 72.9319 88.2162 75.2197L73.1688 101.28L73.1299 101.347C71.8046 103.619 71.133 104.771 70.2022 105.64C69.1889 106.59 67.9699 107.28 66.6335 107.669C65.4145 108 64.0488 108 61.3171 108ZM90.6159 108H107.24C109.693 108 110.927 108 111.661 107.526C112.454 107.022 112.953 106.173 112.998 105.252C113.04 104.431 112.451 103.435 111.297 101.484C111.257 101.417 111.217 101.35 111.177 101.281L102.849 87.3239L102.755 87.1667C101.584 85.228 100.994 84.249 100.235 83.8706C99.3985 83.4533 98.4138 83.4533 97.5772 83.8706C96.8138 84.2591 96.1969 85.2807 94.9774 87.3382L86.68 101.295L86.6516 101.343C85.4369 103.398 84.8299 104.424 84.8737 105.266C84.9324 106.187 85.4171 107.036 86.2101 107.54C86.9297 108 88.1633 108 90.6159 108Z" fill="white"/>
    <defs>
        <linearGradient id="paint0_linear_3070_1185" x1="79" y1="0" x2="79" y2="158" gradientUnits="userSpaceOnUse">
            <stop stop-color="#BC433A"/>
            <stop offset="1" stop-color="#A3342E"/>
        </linearGradient>
    </defs>
</svg>
