<svg width="159" height="159" viewBox="0 0 159 159" fill="none" xmlns="http://www.w3.org/2000/svg">
    <rect width="159" height="159" fill="url(#paint0_linear_4674_1895)"/>
    <path fill-rule="evenodd" clip-rule="evenodd" d="M37.2715 41.0835C37.8474 41.2754 38.4232 41.2754 39.1911 41.4674C39.575 41.4674 39.9589 41.8513 39.9589 42.2352C40.1509 43.0031 40.5348 43.7709 40.7268 44.7307C40.9187 45.1147 40.7268 45.4986 40.3429 45.3066C39.767 45.1147 39.1911 45.1147 38.6152 44.9227C38.2313 44.9227 38.0393 44.5388 37.8474 44.1548C37.6554 43.387 37.2715 42.4272 37.0795 41.6594C36.8876 41.2754 37.0795 40.8915 37.2715 41.0835Z" fill="white"/>
    <path fill-rule="evenodd" clip-rule="evenodd" d="M39.383 37.0523C39.9589 37.2443 40.7268 37.4362 41.3027 37.6282C41.6866 37.6282 42.0705 38.2041 42.0705 38.588C42.2625 39.1639 42.6464 39.9317 42.8383 40.6996C43.0303 41.0835 42.8383 41.2755 42.4544 41.2755C41.8785 41.0835 41.3027 40.8915 40.5348 40.8915C40.1509 40.8915 39.767 40.5076 39.767 39.9317C39.575 39.1639 39.1911 38.396 38.9991 37.4362C38.8072 37.2443 38.9991 36.8604 39.383 37.0523Z" fill="white"/>
    <path fill-rule="evenodd" clip-rule="evenodd" d="M43.0303 38.0122C43.6062 38.2042 44.374 38.3961 44.9499 38.5881C45.3339 38.7801 45.7178 39.164 45.7178 39.5479C46.1017 40.3157 46.2937 41.0836 46.6776 41.8514C46.8695 42.2354 46.6776 42.4273 46.2937 42.4273C45.7178 42.2354 44.9499 42.0434 44.374 41.8514C43.9901 41.8514 43.6062 41.2755 43.6062 40.8916C43.4142 40.1238 43.0303 39.3559 42.8384 38.5881C42.6464 38.2042 42.8384 38.0122 43.0303 38.0122Z" fill="white"/>
    <path fill-rule="evenodd" clip-rule="evenodd" d="M54.548 42.2352C55.1239 42.4272 55.8917 42.8111 56.4676 43.195C56.8515 43.387 57.2354 43.7709 57.2354 44.1548C57.4274 44.9227 57.6194 45.4986 58.0033 46.2664C58.1953 46.6503 58.0033 46.8423 57.6194 46.6503C57.0435 46.2664 56.2756 46.0745 55.6998 45.8825C55.3158 45.6905 54.9319 45.3066 54.9319 44.9227C54.7399 44.1548 54.548 43.579 54.1641 42.8111C54.1641 42.2352 54.356 42.2352 54.548 42.2352Z" fill="white"/>
    <path fill-rule="evenodd" clip-rule="evenodd" d="M40.9187 41.8514C41.4946 42.0433 42.0705 42.0433 42.8384 42.2353C43.2223 42.2353 43.6062 42.6192 43.6062 43.1951C43.7982 43.9629 44.1821 44.7308 44.374 45.4986C44.566 45.8825 44.374 46.0745 43.9901 46.0745C43.4142 45.8825 42.8384 45.6906 42.2625 45.6906C41.8786 45.6906 41.6866 45.3067 41.4946 44.9227C41.3027 44.1549 40.9187 43.387 40.7268 42.4272C40.5348 42.0433 40.7268 41.6594 40.9187 41.8514Z" fill="white"/>
    <path fill-rule="evenodd" clip-rule="evenodd" d="M44.566 42.8112C45.1419 43.0031 45.9097 43.1951 46.4856 43.3871C46.8695 43.3871 47.2535 43.771 47.2535 44.1549C47.4454 44.9228 47.8294 45.6906 48.0213 46.4584C48.2133 46.8424 48.0213 47.0343 47.6374 47.0343C47.0615 46.8424 46.2937 46.6504 45.7178 46.6504C45.3339 46.6504 44.9499 46.2665 44.9499 45.8826C44.758 45.1147 44.3741 44.3469 44.1821 43.579C44.1821 42.8112 44.374 42.6192 44.566 42.8112Z" fill="white"/>
    <path fill-rule="evenodd" clip-rule="evenodd" d="M48.4052 43.771C48.9811 43.963 49.749 44.1549 50.3248 44.3469C50.7088 44.5388 51.0927 44.9228 51.0927 45.3067C51.2847 46.0745 51.6686 46.8424 51.8605 47.4183C52.0525 47.8022 51.8605 47.9941 51.4766 47.8022C50.9007 47.6102 50.1329 47.4183 49.557 47.2263C49.1731 47.2263 48.7892 46.8424 48.7892 46.4585C48.5972 45.6906 48.2133 44.9228 48.0213 44.1549C47.8294 43.963 48.0213 43.771 48.4052 43.771Z" fill="white"/>
    <path fill-rule="evenodd" clip-rule="evenodd" d="M52.2445 45.1147C52.8203 45.3067 53.5882 45.4987 54.1641 45.8826C54.548 46.0745 54.9319 46.4585 54.9319 46.8424C55.1239 47.6102 55.3158 48.1861 55.6998 48.954C55.8917 49.3379 55.6998 49.5298 55.3158 49.3379C54.74 49.1459 53.9721 48.954 53.3962 48.57C53.0123 48.3781 52.6284 47.9942 52.6284 47.6102C52.4364 46.8424 52.0525 46.0745 51.8605 45.4987C51.6686 45.1147 51.8605 44.9228 52.2445 45.1147Z" fill="white"/>
    <path fill-rule="evenodd" clip-rule="evenodd" d="M56.0837 46.6504C56.6596 46.8423 57.4274 47.2263 58.0033 47.4182C58.3872 47.6102 58.7711 47.9941 58.7711 48.378C58.9631 49.1459 59.1551 49.7218 59.539 50.4896C59.731 50.8735 59.539 51.0655 59.1551 50.8735C58.5792 50.4896 57.8113 50.2976 57.2355 50.1057C56.8515 49.9137 56.4676 49.5298 56.4676 49.1459C56.2756 48.378 56.0837 47.8021 55.6998 47.0343C55.5078 46.6504 55.6998 46.4584 56.0837 46.6504Z" fill="white"/>
    <path fill-rule="evenodd" clip-rule="evenodd" d="M49.9409 48.378C50.5168 48.5699 51.2846 48.7619 51.8605 48.9539C52.2445 49.1458 52.6284 49.5297 52.6284 49.7217C52.8203 50.4896 53.2043 51.2574 53.3962 51.8333C53.5882 52.2172 53.3962 52.4092 53.0123 52.4092C52.4364 52.2172 51.6686 52.0252 51.0927 51.8333C50.7088 51.8333 50.3248 51.4494 50.3248 51.0654C50.1329 50.2976 49.749 49.5297 49.557 48.7619C49.365 48.378 49.557 48.186 49.9409 48.378Z" fill="white"/>
    <path fill-rule="evenodd" clip-rule="evenodd" d="M53.5882 49.5299C54.1641 49.7218 54.9319 49.9138 55.5078 50.2977C55.8917 50.4897 56.2756 50.8736 56.2756 51.2575C56.4676 52.0254 56.8515 52.6012 57.0435 53.3691C57.2355 53.753 57.0435 53.945 56.6596 53.753C56.0837 53.5611 55.3158 53.3691 54.74 53.1771C54.356 52.9852 53.9721 52.6013 53.9721 52.4093C53.7801 51.6414 53.3962 50.8736 53.2043 50.2977C53.2043 49.5299 53.3962 49.3379 53.5882 49.5299Z" fill="white"/>
    <path fill-rule="evenodd" clip-rule="evenodd" d="M47.8293 52.0253C48.4052 52.2173 48.9811 52.2173 49.749 52.4093C50.1329 52.4093 50.5168 52.7932 50.5168 53.1771C50.7088 53.9449 51.0927 54.7128 51.2847 55.4806C51.4766 55.8646 51.2847 56.0565 50.9007 56.0565C50.3248 55.8646 49.749 55.8646 49.1731 55.6726C48.7892 55.6726 48.5972 55.2887 48.4052 54.9047C48.2133 54.1369 47.8293 53.3691 47.6374 52.6012C47.2535 52.2173 47.4454 52.0253 47.8293 52.0253Z" fill="white"/>
    <path fill-rule="evenodd" clip-rule="evenodd" d="M51.4766 52.7931C52.0525 52.9851 52.8203 53.177 53.3962 53.369C53.7802 53.369 54.1641 53.7529 54.1641 54.1368C54.356 54.9047 54.74 55.6725 54.9319 56.2484C55.1239 56.6323 54.9319 56.8243 54.548 56.8243C53.9721 56.6323 53.2043 56.4404 52.6284 56.4404C52.2445 56.4404 51.8605 56.0564 51.8605 55.6725C51.6686 54.9047 51.2847 54.1368 51.0927 53.369C50.9007 52.9851 51.0927 52.7931 51.4766 52.7931Z" fill="white"/>
    <path fill-rule="evenodd" clip-rule="evenodd" d="M55.1239 53.9448C55.6998 54.1368 56.4676 54.3288 57.0435 54.5207C57.4274 54.7127 57.8113 55.0966 57.8113 55.4805C58.0033 56.2484 58.3872 56.8243 58.5792 57.5921C58.7711 57.976 58.5792 58.168 58.1953 57.976C57.6194 57.7841 56.8515 57.5921 56.2756 57.4002C55.8917 57.2082 55.5078 57.0162 55.5078 56.6323C55.3158 55.8645 54.9319 55.0966 54.74 54.5207C54.74 53.9448 54.74 53.7529 55.1239 53.9448Z" fill="white"/>
    <path fill-rule="evenodd" clip-rule="evenodd" d="M58.9631 55.2887C59.539 55.4806 60.3068 55.8646 60.8827 56.0565C61.2667 56.2485 61.6506 56.6324 61.6506 57.0163C61.8425 57.7842 62.0345 58.3601 62.4184 59.1279C62.6104 59.5118 62.4184 59.7038 62.0345 59.5118C61.4586 59.3199 60.6908 58.936 60.1149 58.744C59.731 58.552 59.347 58.1681 59.347 57.7842C59.1551 57.0163 58.9631 56.4405 58.5792 55.6726C58.3872 55.2887 58.5792 55.0967 58.9631 55.2887Z" fill="white"/>
    <path fill-rule="evenodd" clip-rule="evenodd" d="M58.9631 44.3468C59.731 44.7308 60.3068 45.1147 61.0747 45.4986C61.4586 45.6906 61.8425 46.2665 62.0345 46.4584C62.2265 47.2263 62.4184 47.8022 62.8023 48.57C62.9943 48.9539 62.8023 48.9539 62.4184 48.762C61.4586 48.378 60.6908 47.9941 60.1149 47.6102C59.731 47.4182 59.347 47.0343 59.347 46.6504C59.1551 45.8825 58.9631 45.3067 58.5792 44.5388C58.3872 44.3468 58.5792 44.1549 58.9631 44.3468Z" fill="white"/>
    <path fill-rule="evenodd" clip-rule="evenodd" d="M60.3068 48.57C61.0747 48.9539 61.6506 49.3378 62.4184 49.5298C62.8023 49.7218 63.1863 50.2976 63.3782 50.4896C63.5702 51.2575 63.7621 51.8333 64.1461 52.6012C64.338 52.9851 64.1461 52.9851 63.7621 52.7931C62.9943 52.4092 62.4184 52.0253 61.6506 51.8333C61.2666 51.6414 60.8827 51.2575 60.8827 50.8735C60.3068 50.2976 60.1149 49.5298 59.9229 48.9539C59.7309 48.57 59.9229 48.378 60.3068 48.57Z" fill="white"/>
    <path fill-rule="evenodd" clip-rule="evenodd" d="M61.6506 52.7932C62.4184 53.1771 62.9943 53.3691 63.7621 53.753C64.1461 53.945 64.53 54.3289 64.722 54.7128C64.9139 55.4807 65.1059 56.0565 65.4898 56.8244C65.6818 57.2083 65.4898 57.2083 65.1059 57.0163C64.338 56.6324 63.7621 56.2485 62.9943 56.0565C62.6104 55.8646 62.2265 55.4807 62.2265 55.0967C62.0345 54.3289 61.8425 53.753 61.4586 52.9852C61.2666 52.7932 61.4586 52.6012 61.6506 52.7932Z" fill="white"/>
    <path fill-rule="evenodd" clip-rule="evenodd" d="M63.1862 57.0162C63.9541 57.4001 64.53 57.5921 65.2978 57.976C65.6818 58.168 66.0657 58.5519 66.2576 58.9358C66.4496 59.7037 66.6416 60.2796 67.0255 61.0474C67.2174 61.4313 67.0255 61.4313 66.6416 61.2394C65.8737 60.8554 65.2978 60.6635 64.53 60.2796C64.1461 60.0876 63.7621 59.7037 63.7621 59.3198C63.5702 58.5519 63.3782 57.976 62.9943 57.2082C62.6104 57.0162 62.8023 56.8243 63.1862 57.0162Z" fill="white"/>
    <path fill-rule="evenodd" clip-rule="evenodd" d="M62.9943 46.6505C63.7621 47.0344 64.53 47.6103 65.1059 47.9942C65.4898 48.1861 65.8737 48.762 66.0657 49.1459C66.2576 49.9138 66.4496 50.4897 66.8335 51.2575C67.0255 51.6414 66.8335 51.6414 66.4496 51.4495C65.6818 50.8736 64.9139 50.4897 64.338 50.1058C63.9541 49.9138 63.5702 49.3379 63.3782 49.1459C63.1863 48.3781 62.9943 47.8022 62.6104 47.0344C62.4184 46.4585 62.6104 46.4585 62.9943 46.6505Z" fill="white"/>
    <path fill-rule="evenodd" clip-rule="evenodd" d="M67.4094 49.5298C68.1772 50.1057 68.9451 50.8736 69.7129 51.4494C70.0969 51.8334 70.4808 52.4092 70.6727 52.6012C70.8647 53.1771 71.0567 53.9449 71.4406 54.7128C71.6326 55.0967 71.2486 55.0967 70.8647 54.7128C70.0969 54.1369 69.329 53.3691 68.5612 52.7932C68.1772 52.4092 67.7933 52.0253 67.6014 51.6414C67.4094 50.8736 67.2174 50.2977 66.8335 49.5298C66.8335 49.3379 67.0255 49.1459 67.4094 49.5298Z" fill="white"/>
    <path fill-rule="evenodd" clip-rule="evenodd" d="M72.2084 53.7529C73.1682 54.7127 74.1281 55.8645 75.2798 57.4002C75.8557 58.168 80.6547 72.5651 80.6547 72.5651C80.6547 72.5651 76.6236 61.0475 76.2396 60.4716C75.2798 59.1278 74.1281 57.9761 73.3602 57.0163C72.9763 56.6323 72.5924 56.0565 72.4004 55.6725C72.2084 55.0967 72.0165 54.3288 71.8245 53.7529C71.4406 53.177 71.8245 53.369 72.2084 53.7529Z" fill="white"/>
    <path fill-rule="evenodd" clip-rule="evenodd" d="M68.7531 53.561C69.521 54.1368 70.2888 54.7127 71.0567 55.4806C71.4406 55.8645 71.8245 56.4404 72.0165 56.6323C72.2084 57.4002 72.4004 57.9761 72.7843 58.7439C72.9763 59.1278 72.5924 59.1278 72.2084 58.7439C71.4406 58.168 70.6727 57.4002 69.9049 56.8243C69.521 56.6323 69.1371 56.0565 68.9451 55.6725C68.7531 54.9047 68.5612 54.3288 68.1773 53.561C68.1773 53.369 68.3692 53.369 68.7531 53.561Z" fill="white"/>
    <path fill-rule="evenodd" clip-rule="evenodd" d="M73.5522 57.7842C74.512 58.744 75.4718 59.8957 76.4316 61.2395C77.0075 61.8154 80.6547 72.5652 80.6547 72.5652C80.6547 72.5652 77.9673 64.6948 77.3914 64.1189C76.4316 62.9671 75.4718 61.8154 74.512 61.0475C74.128 60.6636 73.7441 60.0877 73.5522 59.7038C73.3602 58.9359 73.1682 58.3601 72.9763 57.7842C72.7843 57.2083 73.1682 57.4003 73.5522 57.7842Z" fill="white"/>
    <path fill-rule="evenodd" clip-rule="evenodd" d="M65.8737 54.9047C66.6416 55.2886 67.2174 55.8645 67.9853 56.2484C68.3692 56.4404 68.7531 57.0163 68.9451 57.4002C69.137 58.1681 69.329 58.7439 69.7129 59.5118C69.9049 59.8957 69.7129 59.8957 69.329 59.7037C68.5612 59.3198 67.7933 58.7439 67.2174 58.36C66.8335 58.1681 66.4496 57.7841 66.4496 57.4002C66.2576 56.6324 66.0657 56.0565 65.6818 55.2886C65.2978 54.9047 65.4898 54.7128 65.8737 54.9047Z" fill="white"/>
    <path fill-rule="evenodd" clip-rule="evenodd" d="M70.0969 57.7842C70.8647 58.36 71.6326 58.9359 72.4004 59.7038C72.7843 60.0877 73.1682 60.6636 73.3602 60.8555C73.5522 61.6234 73.7441 62.1993 74.128 62.9671C74.32 63.351 73.9361 63.351 73.5522 62.9671C72.7843 62.3912 72.0165 61.8153 71.2486 61.2395C70.8647 61.0475 70.4808 60.4716 70.2888 60.0877C70.0969 59.3199 69.9049 58.744 69.521 57.9761C69.521 57.5922 69.7129 57.4002 70.0969 57.7842Z" fill="white"/>
    <path fill-rule="evenodd" clip-rule="evenodd" d="M74.8959 61.8153C75.8557 62.5831 76.8155 63.7349 77.7753 64.8867C78.3512 65.4626 80.8467 72.5651 80.8467 72.5651C80.8467 72.5651 79.311 68.5339 78.7351 67.9581C77.7753 66.8063 76.8155 65.8465 76.0477 65.0786C75.6637 64.6947 75.2798 64.1188 75.0879 63.7349C74.8959 63.159 74.7039 62.3912 74.512 61.8153C74.1281 61.2394 74.512 61.4314 74.8959 61.8153Z" fill="white"/>
    <path fill-rule="evenodd" clip-rule="evenodd" d="M67.2174 59.1279C67.9853 59.5118 68.5612 60.0877 69.329 60.4716C69.7129 60.6636 70.0969 61.2395 70.2888 61.6234C70.4808 62.3913 70.6727 62.9671 71.0567 63.735C71.2486 64.1189 71.0567 64.1189 70.6727 63.927C69.9049 63.543 69.1371 62.9671 68.5612 62.5832C68.1772 62.3913 67.7933 62.0073 67.7933 61.6234C67.6014 60.8556 67.4094 60.2797 67.0255 59.5118C66.6416 59.1279 66.8335 58.936 67.2174 59.1279Z" fill="white"/>
    <path fill-rule="evenodd" clip-rule="evenodd" d="M71.6325 62.0073C72.4004 62.5832 73.1682 63.1591 73.9361 63.735C74.32 64.1189 74.7039 64.6948 74.8959 64.8867C75.0879 65.6546 75.2798 66.2305 75.6637 66.9983C75.8557 67.3822 75.4718 67.3822 75.0878 66.9983C74.32 66.4224 73.5522 65.8465 72.7843 65.2706C72.4004 65.0787 72.0165 64.5028 71.8245 64.1189C71.6325 63.351 71.4406 62.7751 71.0567 62.0073C70.8647 61.8153 71.2486 61.6234 71.6325 62.0073Z" fill="white"/>
    <path fill-rule="evenodd" clip-rule="evenodd" d="M76.2396 65.6546C77.1994 66.4224 77.9673 67.3822 78.9271 68.534C79.311 69.1099 80.6547 72.3732 80.6547 72.3732C80.6547 72.3732 80.2708 71.9893 79.8869 71.4134C78.9271 70.4536 78.1592 69.4938 77.1994 68.726C76.8155 68.342 76.4316 67.7662 76.2396 67.5742C76.0477 66.9983 75.8557 66.2305 75.6637 65.6546C75.4718 65.2707 75.8557 65.2707 76.2396 65.6546Z" fill="white"/>
    <path fill-rule="evenodd" clip-rule="evenodd" d="M71.0567 115.756C71.6326 115.181 72.2084 114.797 72.7843 114.221C72.9763 114.029 72.9763 113.645 72.7843 113.453C72.2084 112.877 71.8245 112.301 71.2486 111.917C71.0567 111.725 70.8647 111.725 70.4808 111.917C69.9049 112.493 69.329 112.877 68.7531 113.261C68.5612 113.453 68.5612 113.645 68.7531 113.837C69.329 114.413 69.7129 114.989 70.2888 115.564C70.6727 115.948 70.8647 115.948 71.0567 115.756ZM65.8737 104.047C66.4496 103.471 67.0255 103.087 67.6014 102.511C67.7933 102.319 67.7933 101.935 67.6014 101.743C67.2174 101.167 66.6416 100.783 66.2576 100.208C66.0657 100.016 65.8737 100.016 65.6818 100.208C65.1059 100.591 64.53 101.167 63.9541 101.551C63.7621 101.743 63.7621 101.935 63.9541 102.127C64.53 102.703 64.9139 103.279 65.4898 103.663C65.4898 104.239 65.6818 104.239 65.8737 104.047ZM68.9451 101.167C69.521 100.591 69.9049 100.016 70.4808 99.6317C70.6728 99.4397 70.6728 99.0558 70.4808 98.8638C70.0969 98.2879 69.521 97.904 69.1371 97.3281C68.9451 97.1362 68.7531 97.1362 68.5612 97.3281C67.9853 97.904 67.6014 98.2879 67.0255 98.8638C66.8335 99.0558 66.8335 99.2477 67.0255 99.4397C67.4094 100.016 67.9853 100.4 68.3692 100.975C68.5612 101.359 68.7531 101.359 68.9451 101.167ZM71.8245 98.096C72.4004 97.5201 72.7843 96.9442 73.1682 96.3683C73.3602 96.1764 73.3602 95.7924 73.1682 95.6005C72.7843 95.2165 72.4004 94.6407 71.8245 94.2567C71.6326 94.0648 71.4406 94.0648 71.2486 94.2567C70.6727 94.8326 70.2888 95.4085 69.7129 95.9844C69.521 96.1764 69.521 96.5603 69.7129 96.7522C70.0969 97.3281 70.6727 97.712 71.0567 98.2879C71.4406 98.4799 71.6326 98.2879 71.8245 98.096ZM74.512 94.8326C74.8959 94.2567 75.2798 93.6809 75.8557 92.913C76.0477 92.7211 76.0477 92.3371 75.8557 92.1452C75.4718 91.7612 75.0879 91.3773 74.7039 90.8014C74.512 90.6095 74.32 90.6095 74.128 90.9934C73.7441 91.5693 73.1682 92.1452 72.7843 92.7211C72.5924 92.913 72.5924 93.2969 72.7843 93.4889C73.1682 93.8728 73.5522 94.4487 74.128 94.8326C73.9361 95.2165 74.32 95.2165 74.512 94.8326ZM76.8155 91.3773C77.1994 90.8014 77.5834 90.0336 77.9673 89.2657C78.1592 89.0738 78.1592 88.6899 77.9673 88.4979C77.5834 88.114 77.1994 87.7301 77.0075 87.3461C76.8155 87.1542 76.6235 87.3461 76.4316 87.5381C76.0477 88.114 75.6637 88.8818 75.0879 89.4577C74.8959 89.6497 74.8959 90.0336 75.0879 90.2256C75.4718 90.6095 75.8557 90.9934 76.2396 91.5693C76.4316 91.7612 76.6235 91.5693 76.8155 91.3773ZM78.9271 87.5381C79.311 86.7702 79.503 86.0024 79.8869 85.2346C80.0788 85.0426 79.8869 84.6587 79.8869 84.4667C79.503 84.0828 79.311 83.8908 78.9271 83.5069C78.7351 83.3149 78.7351 83.5069 78.5432 83.6989C78.1592 84.4667 77.7753 85.0426 77.3914 85.8104C77.1994 86.0024 77.1994 86.3863 77.3914 86.5783C77.7753 86.9622 78.1592 87.3461 78.3512 87.7301C78.5432 87.922 78.7351 87.7301 78.9271 87.5381ZM80.4628 83.123C80.6547 82.3551 80.8467 81.3953 81.0387 80.4355C81.0387 80.0516 81.0387 79.6677 81.0387 79.6677C80.8467 79.4757 80.6547 79.2838 80.4628 79.0918C80.4628 79.0918 80.2708 79.2838 80.2708 79.4757C80.0789 80.2436 79.6949 81.0114 79.503 81.7793C79.311 81.9712 79.311 82.3551 79.503 82.5471C79.6949 82.931 80.0789 83.123 80.2708 83.5069C80.2708 83.5069 80.4628 83.5069 80.4628 83.123ZM71.6326 104.047C72.2084 103.471 72.5924 102.895 73.1682 102.319C73.3602 102.127 73.3602 101.743 73.1682 101.551C72.7843 100.975 72.2084 100.591 71.8245 100.016C71.6326 99.8236 71.4406 99.8236 71.2486 100.016C70.6727 100.591 70.2888 101.167 69.7129 101.551C69.521 101.743 69.521 102.127 69.7129 102.319C70.0969 102.895 70.6727 103.279 71.0567 103.855C71.2486 104.239 71.4406 104.239 71.6326 104.047ZM74.32 100.975C74.7039 100.4 75.2798 99.8236 75.6637 99.2477C75.8557 99.0558 75.8557 98.6719 75.6637 98.4799C75.2798 98.096 74.7039 97.5201 74.32 97.1362C74.1281 96.9442 73.9361 96.9442 73.7441 97.1362C73.3602 97.712 72.7843 98.2879 72.4004 98.8638C72.2084 99.0558 72.2084 99.4397 72.4004 99.6317C72.7843 100.208 73.3602 100.591 73.7441 101.167C73.9361 101.167 74.1281 101.167 74.32 100.975ZM76.8155 97.5201C77.1994 96.9442 77.5834 96.1764 77.9673 95.6005C78.1592 95.4085 78.1592 95.0246 77.9673 94.8326C77.5834 94.4487 77.1994 94.0648 76.8155 93.4889C76.6235 93.2969 76.4316 93.4889 76.2396 93.6809C75.8557 94.2567 75.4718 95.0246 74.8959 95.6005C74.7039 95.7924 74.7039 96.1764 74.8959 96.3683C75.2798 96.7522 75.6637 97.3281 76.2396 97.712C76.4316 97.712 76.6235 97.712 76.8155 97.5201ZM78.9271 93.6809C79.311 92.913 79.6949 92.3371 79.8869 91.5693C80.0788 91.3773 80.0788 90.9934 79.8869 90.8014C79.503 90.4175 79.119 90.0336 78.9271 89.6497C78.7351 89.4577 78.5432 89.6497 78.5432 89.8416C78.1592 90.6095 77.7753 91.1854 77.3914 91.9532C77.1994 92.1452 77.1994 92.5291 77.3914 92.7211C77.7753 93.105 78.1592 93.4889 78.5432 94.0648C78.5432 94.0648 78.7351 93.8728 78.9271 93.6809ZM80.6547 89.4577C80.8467 88.6899 81.2306 87.922 81.4226 86.9622C81.4226 86.5783 81.4226 86.3863 81.4226 86.1944C81.0387 85.8104 80.8467 85.6185 80.4628 85.2346C80.2708 85.0426 80.2708 85.2346 80.0789 85.6185C79.8869 86.3863 79.503 87.1542 79.119 87.922C78.9271 88.114 78.9271 88.4979 79.119 88.6899C79.503 89.0738 79.8869 89.4577 80.0789 89.8416C80.4628 89.8416 80.6547 89.8416 80.6547 89.4577ZM81.9985 84.6587C82.1904 83.6989 82.1904 82.7391 82.1904 81.7793C82.1904 81.3953 82.1904 81.0114 81.9985 81.0114C81.8065 80.8194 81.6145 80.6275 81.4226 80.4355C81.4226 80.4355 81.2306 80.6275 81.2306 81.0114C81.0387 81.9712 80.8467 82.931 80.6547 83.6989C80.6547 84.0828 80.6547 84.2748 80.6547 84.4667C80.8467 84.8506 81.2306 85.0426 81.4226 85.4265C81.8065 85.2346 81.8065 85.0426 81.9985 84.6587ZM71.4406 109.998C72.0165 109.422 72.5924 109.038 72.9763 108.462C73.1682 108.27 73.1682 107.886 72.9763 107.694C72.5924 107.118 72.0165 106.734 71.6326 106.158C71.4406 105.966 71.2486 105.966 71.0567 106.158C70.4808 106.734 69.9049 107.118 69.521 107.694C69.329 107.886 69.329 108.078 69.521 108.27C70.0969 108.846 70.4808 109.422 71.0567 109.806C70.8647 109.998 71.2486 110.19 71.4406 109.998ZM74.32 106.926C74.7039 106.35 75.2798 105.774 75.6637 105.199C75.8557 105.007 75.8557 104.623 75.6637 104.431C75.2798 103.855 74.7039 103.471 74.32 102.895C74.1281 102.703 73.9361 102.703 73.7441 102.895C73.1682 103.471 72.7843 104.047 72.2084 104.623C72.0165 104.815 72.0165 105.199 72.2084 105.39C72.5924 105.966 73.1682 106.35 73.5522 106.926C73.7441 107.118 74.1281 107.118 74.32 106.926ZM76.8155 103.663C77.1994 103.087 77.7753 102.511 78.1592 101.743C78.3512 101.551 78.3512 101.167 78.1592 100.975C77.7753 100.591 77.3914 100.016 76.8155 99.6317C76.6235 99.4397 76.4316 99.4397 76.2396 99.8236C75.8557 100.4 75.2798 100.975 74.8959 101.743C74.7039 101.935 74.7039 102.319 74.8959 102.511C75.2798 103.087 75.8557 103.471 76.2396 104.047C76.4316 103.855 76.6235 103.855 76.8155 103.663ZM79.119 100.016C79.503 99.2477 79.8869 98.6719 80.2708 97.904C80.4628 97.712 80.4628 97.3281 80.2708 97.1362C79.8869 96.7522 79.503 96.3683 79.119 95.7924C78.9271 95.6005 78.7351 95.7924 78.5432 95.9844C78.1592 96.7522 77.7753 97.3281 77.3914 97.904C77.1994 98.096 77.1994 98.4799 77.3914 98.6718C77.7753 99.0558 78.1592 99.6317 78.7351 100.016C78.7351 100.208 79.119 100.208 79.119 100.016ZM81.0387 95.9844C81.4226 95.2165 81.6145 94.4487 81.8065 93.6809C81.8065 93.2969 81.8065 93.105 81.8065 92.913C81.4226 92.5291 81.0387 92.1452 80.8467 91.7612C80.6547 91.5693 80.4628 91.7612 80.4628 91.9532C80.0788 92.7211 79.8869 93.4889 79.503 94.2567C79.311 94.4487 79.311 94.8326 79.503 95.0246C79.8869 95.4085 80.2708 95.7924 80.6547 96.1764C80.8467 96.3683 81.0387 96.1764 81.0387 95.9844ZM82.5744 91.3773C82.7663 90.4175 82.9583 89.6497 83.1502 88.6899C83.1502 88.3059 83.1502 87.922 82.9583 87.922C82.7663 87.5381 82.3824 87.3461 81.9985 86.9622C81.8065 86.7702 81.8065 86.9622 81.6145 87.3461C81.4226 88.3059 81.2306 89.0738 80.8467 89.8416C80.8467 90.2256 80.8467 90.4175 80.8467 90.6095C81.2306 90.9934 81.6145 91.3773 81.8065 91.7612C82.3824 91.9532 82.5744 91.7612 82.5744 91.3773ZM83.3422 86.1944C83.3422 85.2346 83.3422 84.0828 83.3422 82.931C83.3422 82.5471 83.1502 82.1632 83.1502 81.9712C82.9583 81.7793 82.7663 81.5873 82.5744 81.3953C82.5744 81.3953 82.3824 81.5873 82.3824 81.9712C82.3824 83.123 82.1904 84.0828 82.1904 85.0426C82.1904 85.4265 82.1904 85.8104 82.3824 85.8104C82.5743 86.1944 82.9583 86.3863 83.1502 86.7702C83.3422 86.7702 83.3422 86.5783 83.3422 86.1944ZM74.128 112.877C74.7039 112.301 75.0879 111.725 75.6637 111.149C75.8557 110.957 75.8557 110.573 75.6637 110.381C75.2798 109.806 74.7039 109.422 74.32 108.846C74.1281 108.654 73.9361 108.654 73.7441 108.846C73.1682 109.422 72.7843 109.998 72.2084 110.381C72.0165 110.573 72.0165 110.957 72.2084 111.149C72.7843 111.725 73.1682 112.301 73.7441 112.685C73.7441 113.069 73.9361 113.069 74.128 112.877ZM77.0075 109.806C77.3914 109.23 77.9673 108.654 78.3512 108.078C78.5432 107.886 78.5432 107.502 78.3512 107.31C77.9673 106.734 77.3914 106.35 77.0075 105.774C76.8155 105.582 76.6235 105.582 76.4316 105.774C76.0477 106.35 75.4718 106.926 75.0879 107.502C74.8959 107.694 74.8959 108.078 75.0879 108.27C75.4718 108.846 76.0477 109.23 76.4316 109.806C76.4316 109.998 76.8155 109.998 77.0075 109.806ZM81.6145 102.511C81.9985 101.743 82.1904 100.975 82.5744 100.208C82.7663 100.016 82.5744 99.6317 82.5744 99.4397C82.1904 99.0558 81.8065 98.6719 81.4226 98.096C81.2306 97.904 81.0387 98.096 80.8467 98.2879C80.4628 99.0558 80.0788 99.6317 79.8869 100.4C79.6949 100.591 79.6949 100.975 79.8869 101.167C80.2708 101.551 80.6547 102.127 81.2306 102.511C81.2306 102.895 81.4226 102.703 81.6145 102.511ZM83.1502 98.2879C83.3422 97.5201 83.7261 96.7522 83.9181 95.7924C83.9181 95.4085 83.9181 95.2165 83.9181 95.0246C83.5342 94.6407 83.1502 94.2567 82.9583 93.8728C82.7663 93.6809 82.5744 93.8728 82.5744 94.2567C82.3824 95.0246 81.9985 95.7924 81.8065 96.5603C81.6145 96.7522 81.8065 97.1362 81.8065 97.3281C82.1904 97.712 82.5744 98.096 82.9583 98.6718C82.9583 98.6718 83.1502 98.4799 83.1502 98.2879ZM84.494 93.4889C84.6859 92.5291 84.6859 91.5693 84.8779 90.6095C84.8779 90.2256 84.8779 89.8416 84.6859 89.6497C84.302 89.2657 84.11 89.0738 83.7261 88.6899C83.5342 88.4979 83.5342 88.6899 83.5342 89.0738C83.3422 90.0336 83.1502 90.9934 82.9583 91.7612C82.9583 92.1452 82.9583 92.5291 83.1502 92.5291C83.5342 92.913 83.9181 93.2969 84.11 93.6809C84.302 94.0648 84.302 93.8728 84.494 93.4889ZM84.8779 87.922C84.8779 86.7702 84.6859 85.6185 84.494 84.2748C84.494 83.6989 84.302 83.3149 84.302 83.3149C84.11 83.123 83.9181 82.931 83.7261 82.7391C83.7261 82.7391 83.7261 82.931 83.7261 83.3149C83.9181 84.4667 83.9181 85.6185 83.9181 86.7702C83.9181 87.1542 83.9181 87.5381 84.11 87.7301C84.302 88.114 84.6859 88.3059 84.8779 88.6899C84.8779 88.4979 84.8779 88.3059 84.8779 87.922ZM83.7261 80.4355C83.1502 78.8998 82.5743 76.9802 81.4226 74.6767C81.0387 73.7169 80.6547 73.141 80.6547 73.141C80.6547 73.141 80.6547 73.5249 80.6547 73.9088C80.6547 75.0606 80.6547 76.0204 80.4628 76.9802C80.4628 77.3641 80.4628 77.5561 80.4628 77.7481C80.6547 77.94 80.8467 78.132 81.0387 78.324C81.0387 78.324 81.2306 78.132 81.2306 77.7481C81.2306 76.5963 81.0387 75.4445 80.8467 74.1008C80.6547 73.5249 80.6547 73.141 80.6547 73.141C80.6547 73.141 80.8467 73.5249 80.8467 74.1008C81.2306 75.4445 81.2306 76.7883 81.4226 77.94C81.4226 78.3239 81.4226 78.7079 81.6145 78.7079C81.8065 78.8998 81.9985 79.0918 82.1904 79.2838C82.1904 79.2838 82.1904 79.0918 82.1904 78.5159C81.9985 77.1722 81.8065 75.8285 81.2306 74.1008C81.0387 73.5249 80.8467 72.949 80.8467 72.949C80.8467 72.949 81.0387 73.5249 81.2306 74.1008C81.8065 75.8285 82.1904 77.3641 82.3824 78.5159C82.3824 78.8998 82.5744 79.2838 82.5744 79.4757C82.7663 79.6677 82.9583 79.8596 83.1502 80.0516C83.1502 80.0516 83.1502 79.8596 83.1502 79.2838C82.7663 77.7481 82.3824 76.2124 81.6145 74.2928C81.2306 73.5249 81.0387 72.949 81.0387 72.949C81.0387 72.949 81.4226 73.5249 81.6145 74.2928C82.3824 76.2124 82.9583 77.94 83.3422 79.4757C83.5342 80.0516 83.5342 80.4355 83.7261 80.4355C83.9181 80.6275 84.11 80.8194 84.302 81.0114C83.9181 81.3953 83.9181 81.0114 83.7261 80.4355ZM65.4898 109.614C66.0657 109.23 66.6416 108.654 67.2174 108.27C67.4094 108.078 67.4094 107.886 67.2174 107.694C66.6416 107.118 66.2576 106.542 65.6818 106.158C65.4898 105.966 65.1059 105.966 64.9139 106.158C64.338 106.542 63.7621 107.118 63.1863 107.502C62.9943 107.694 62.9943 107.886 63.1863 108.078C63.7621 108.654 64.1461 109.23 64.7219 109.806C64.9139 109.614 65.2978 109.806 65.4898 109.614Z" fill="white"/>
    <path fill-rule="evenodd" clip-rule="evenodd" d="M100.235 81.7794L120.583 61.6234H103.306L91.5965 73.1411L79.8869 61.6234H77.3914C77.5833 62.1993 77.9673 62.9671 78.3512 63.735C79.503 66.8064 80.8467 71.2215 82.1904 76.5964C86.0296 81.0115 87.7573 86.9623 87.3734 94.4488L91.4046 90.4176L103.882 102.895H121.159L101.77 83.315L100.235 81.7794Z" fill="white"/>
    <defs>
        <linearGradient id="paint0_linear_4674_1895" x1="79.5" y1="0" x2="79.5" y2="159" gradientUnits="userSpaceOnUse">
            <stop stop-color="#BE4D2B"/>
            <stop offset="1" stop-color="#1D0803"/>
        </linearGradient>
    </defs>
</svg>
