<svg width="159" height="159" viewBox="0 0 159 159" fill="none" xmlns="http://www.w3.org/2000/svg">
    <rect width="159" height="159" fill="url(#paint0_linear_3791_1861)"/>
    <path d="M111.83 71.3765C113.183 62.1303 106.299 57.1598 96.8864 53.844L99.9398 41.3192L92.4842 39.4188L89.5113 51.6141C87.5512 51.1136 85.5383 50.6426 83.5379 50.1756L86.5322 37.8992L79.0842 36L76.0295 48.5209C74.4078 48.1426 72.815 47.7694 71.2688 47.377L71.2776 47.3371L60.9964 44.711L59.0136 52.8545C59.0136 52.8545 64.5443 54.1515 64.4285 54.2313C67.448 55.002 67.9927 57.0453 67.9021 58.6652L59.5358 92.9789C59.1671 93.917 58.2298 95.3246 56.12 94.7906C56.1942 94.9013 50.7013 93.4074 50.7013 93.4074L47 102.135L56.7012 104.608C58.5066 105.071 60.2743 105.555 62.0167 106.011L58.9319 118.679L66.3786 120.58L69.4333 108.046C71.4676 108.611 73.4416 109.132 75.374 109.624L72.3294 122.1L79.7849 124L82.8698 111.354C95.5817 113.814 105.141 112.822 109.164 101.063C112.406 91.5957 109.003 86.1337 102.315 82.5734C107.186 81.4244 110.855 78.1484 111.834 71.3791H111.831L111.83 71.3765ZM94.7966 95.8033C92.4931 105.271 76.9064 100.154 71.8526 98.8695L75.9465 82.0857C80.999 83.3763 97.2047 85.9291 94.7966 95.8033ZM97.1027 71.2389C95.0005 79.8507 82.0281 75.476 77.8198 74.4029L81.5312 59.1812C85.7396 60.2543 99.2919 62.2564 97.104 71.2389H97.1027Z" fill="white"/>
    <defs>
        <linearGradient id="paint0_linear_3791_1861" x1="79.5" y1="0" x2="79.5" y2="159" gradientUnits="userSpaceOnUse">
            <stop stop-color="#E9983D"/>
            <stop offset="1" stop-color="#DC7A0B"/>
        </linearGradient>
    </defs>
</svg>
