<svg width="158" height="158" viewBox="0 0 158 158" fill="none" xmlns="http://www.w3.org/2000/svg">
    <rect width="158" height="158" fill="url(#paint0_linear_3070_1188)"/>
    <path d="M72 106.16C83.1341 106.16 92.16 97.1341 92.16 86C92.16 74.8659 83.1341 65.84 72 65.84C60.8659 65.84 51.84 74.8659 51.84 86C51.84 97.1341 60.8659 106.16 72 106.16ZM72 113C57.0888 113 45 100.911 45 86C45 71.0888 57.0888 59 72 59C86.9112 59 99 71.0888 99 86C99 100.911 86.9112 113 72 113Z" fill="white"/>
    <path d="M86 92.16C97.1341 92.16 106.16 83.1341 106.16 72C106.16 60.8659 97.1341 51.84 86 51.84C74.8659 51.84 65.84 60.8659 65.84 72C65.84 83.1341 74.8659 92.16 86 92.16ZM86 99C71.0888 99 59 86.9112 59 72C59 57.0888 71.0888 45 86 45C100.911 45 113 57.0888 113 72C113 86.9112 100.911 99 86 99Z" fill="white"/>
    <defs>
        <linearGradient id="paint0_linear_3070_1188" x1="79" y1="0" x2="79" y2="158" gradientUnits="userSpaceOnUse">
            <stop stop-color="#529165"/>
            <stop offset="1" stop-color="#C6B24D"/>
        </linearGradient>
    </defs>
</svg>
