<svg width="159" height="159" viewBox="0 0 159 159" fill="none" xmlns="http://www.w3.org/2000/svg">
    <rect width="159" height="159" fill="url(#paint0_linear_3070_1199)"/>
    <path d="M87.9133 65.323L65.6285 87.6066C65.3273 87.041 65.0638 86.4754 64.838 85.8721C64.0475 83.8361 63.671 81.6869 63.671 79.4246C63.671 77.1623 64.0475 75.0131 64.838 72.977C65.6285 70.941 66.6825 69.2066 68.0753 67.6984C69.4681 66.1902 71.1244 65.0213 73.0442 64.1541C74.964 63.2869 77.1097 62.8344 79.4059 62.8344C81.7021 62.8344 83.8478 63.2869 85.8052 64.1541C86.5581 64.5311 87.2733 64.9082 87.9133 65.323ZM85.9558 94.8082C84.036 95.6754 81.8903 96.1279 79.5941 96.1279C77.2979 96.1279 75.1522 95.6754 73.1948 94.8082C72.4795 94.4688 71.7643 94.0918 71.1244 93.677L93.4092 71.3934C93.7103 71.959 93.9738 72.5246 94.1997 73.1279C94.9902 75.1639 95.3666 77.3131 95.3666 79.5754C95.3666 81.8377 94.9902 83.9869 94.1997 86.0229C93.4092 88.059 92.3552 89.7934 90.9624 91.3016C89.5319 92.7721 87.8756 93.941 85.9558 94.8082ZM89.3061 101.746C92.2799 100.464 94.8773 98.6918 97.0606 96.5049C99.2439 94.318 100.938 91.7164 102.142 88.7754C103.347 85.8344 103.949 82.7049 103.949 79.4246C103.949 76.1443 103.347 73.0148 102.142 70.0738C101.427 68.3393 100.561 66.718 99.5074 65.2475L114 50.7689L108.241 45L93.7103 59.5541C92.3928 58.6492 91 57.8951 89.4566 57.2541C86.4828 55.9721 83.1702 55.3689 79.5941 55.3689C75.9804 55.3689 72.7054 56.0098 69.7316 57.2918C66.7578 58.5738 64.1604 60.3459 61.9771 62.5328C59.7938 64.7197 58.0998 67.3213 56.8953 70.2623C55.6907 73.2033 55.0884 76.3328 55.0884 79.6131C55.0884 82.8934 55.6907 86.0229 56.8953 88.9639C57.6105 90.6984 58.4763 92.3197 59.5303 93.7902L45 108.231L50.7594 114L65.2897 99.4459C66.6072 100.351 68 101.105 69.5434 101.746C72.5172 103.028 75.8298 103.631 79.4059 103.631C83.0196 103.669 86.3322 103.028 89.3061 101.746Z" fill="white"/>
    <defs>
        <linearGradient id="paint0_linear_3070_1199" x1="79.5" y1="0" x2="79.5" y2="159" gradientUnits="userSpaceOnUse">
            <stop stop-color="#672A6D"/>
            <stop offset="1" stop-color="#753621"/>
        </linearGradient>
    </defs>
</svg>
