<svg width="158" height="158" viewBox="0 0 158 158" fill="none" xmlns="http://www.w3.org/2000/svg">
    <rect width="158" height="158" fill="url(#paint0_linear_3070_1172)"/>
    <path d="M68.3427 53.0003C51.7515 59.418 50.2316 75.8538 45.4742 83.5297C40.6605 91.2967 29.6324 95.5821 31.1404 99.5404C32.6485 103.498 43.6897 99.2471 52.4249 101.773C61.0566 104.268 73.1003 115.459 89.6915 109.041C98.1435 105.772 104.264 99.0429 107.078 91.0723C107.381 90.2168 106.815 89.3018 105.917 89.2173C105.359 89.1645 104.823 89.4589 104.572 89.9632C102.026 95.0723 97.6586 99.2801 91.9438 101.49C82.5087 105.14 72.1853 102.274 65.8455 95.0882C64.4055 93.4565 63.1739 91.599 62.2018 89.5461C61.9345 88.981 61.6803 88.4067 61.4549 87.8125C61.2282 87.2185 61.0356 86.6204 60.8588 86.0197C65.8455 83.6776 71.5999 81.1968 78.1238 78.6738C84.5198 76.1997 90.3416 74.1929 95.5242 72.5875C99.0306 71.5023 102.245 70.5992 105.146 69.8612C105.357 69.8084 105.563 69.7556 105.769 69.7041C106.208 69.5945 106.659 69.8308 106.821 70.2559L106.824 70.2639C106.919 70.516 107.002 70.7695 107.091 71.023C107.665 72.6588 108.095 74.3117 108.379 75.9686C108.503 76.6934 109.29 77.0882 109.934 76.7396C112.316 75.4511 114.495 74.1942 116.442 72.9849C123.697 68.4828 127.719 64.6647 126.894 62.5008C126.07 60.3356 120.546 60.2115 112.164 61.7562C109.5 62.2473 106.548 62.9074 103.365 63.7247C102.815 63.8659 102.257 64.0125 101.694 64.163C99.016 64.8786 96.1913 65.6985 93.25 66.616C87.78 68.3231 81.9114 70.3682 75.8526 72.7116C70.1849 74.9046 64.813 77.178 59.8866 79.4435C59.8263 69.8282 65.5952 60.7383 75.03 57.0891C80.7437 54.879 86.7842 55.0599 92.0695 57.1419C92.5908 57.3479 93.1844 57.2053 93.566 56.7894C94.176 56.1227 93.9889 55.0612 93.196 54.6282C85.8121 50.6054 76.795 49.7314 68.3427 53.0003Z" fill="white"/>
    <defs>
        <linearGradient id="paint0_linear_3070_1172" x1="79" y1="0" x2="79" y2="158" gradientUnits="userSpaceOnUse">
            <stop stop-color="#DA5443"/>
            <stop offset="1" stop-color="#35142C"/>
        </linearGradient>
    </defs>
</svg>
