<svg width="159" height="159" viewBox="0 0 159 159" fill="none" xmlns="http://www.w3.org/2000/svg">
    <rect width="159" height="159" fill="url(#paint0_linear_3210_1069)"/>
    <path d="M54.0021 57.4071C54.4117 56.8919 54.8461 56.3965 55.2804 55.9006C55.2998 55.8763 55.344 55.8709 55.3634 55.8466C55.4025 55.7975 55.4661 55.7678 55.5053 55.7187L55.544 55.6696C55.8468 55.39 56.169 55.0855 56.5402 54.8199C57.8545 53.8224 59.2182 53.0647 60.6562 52.5659C65.2684 50.9464 70.4025 51.9447 74.4289 55.7455C80.0506 61.0153 79.5473 69.5042 75.0597 75.1469C69.3885 83.5583 59.6431 95.2937 73.1366 105.806C75.5629 107.696 77.3627 109.255 85.0052 111.463C80.0068 112.385 75.3723 112.098 70.2136 110.78C66.5649 108.721 60.8278 104.311 58.8763 98.3549C55.9264 89.3231 64.0697 75.8209 68.0054 70.6205C73.4088 63.4239 64.6658 55.6329 58.2286 64.3306C54.8638 68.8632 48.9774 81.6901 51.023 91.2045C52.2188 96.6001 53.8132 100.533 60.1344 105.935C58.943 105.231 57.802 104.444 56.7197 103.581C42.0328 89.9001 43.7369 68.7469 54.0021 57.4071Z" fill="white"/>
    <path d="M103.999 100.593C103.589 101.108 103.155 101.604 102.72 102.1C102.701 102.124 102.657 102.129 102.637 102.154C102.598 102.203 102.535 102.232 102.495 102.281L102.457 102.331C102.154 102.61 101.832 102.915 101.46 103.18C100.146 104.178 98.7824 104.936 97.3444 105.434C92.7322 107.054 87.5982 106.055 83.5717 102.255C77.9501 96.9849 78.4533 88.496 82.941 82.8533C88.6121 74.4419 98.3576 62.7065 84.8641 52.1938C82.4377 50.3037 80.638 48.7453 72.9955 46.5367C77.9938 45.6156 82.6283 45.9023 87.7871 47.2199C91.4357 49.2795 97.1728 53.6892 99.1244 59.6453C102.074 68.6771 93.931 82.1793 89.9952 87.3797C84.5918 94.5763 93.3349 102.367 99.772 93.6696C103.137 89.137 109.023 76.3101 106.978 66.7957C105.782 61.4001 104.187 57.4673 97.8663 52.0651C99.0576 52.7698 100.199 53.5562 101.281 54.4189C115.968 68.1001 114.264 89.2533 103.999 100.593Z" fill="white"/>
    <defs>
        <linearGradient id="paint0_linear_3210_1069" x1="79.5" y1="0" x2="79.5" y2="159" gradientUnits="userSpaceOnUse">
            <stop stop-color="#01C2FD"/>
            <stop offset="1" stop-color="#01D9FE"/>
        </linearGradient>
    </defs>
</svg>
