<svg width="159" height="159" viewBox="0 0 159 159" fill="none" xmlns="http://www.w3.org/2000/svg">
    <rect width="159" height="159" fill="url(#paint0_linear_4475_1827)"/>
    <path d="M120 60.7583C118.981 61.1779 117.956 61.58 116.946 62.0196C115.868 62.4887 114.758 62.9056 113.855 63.7099C112.576 64.8484 111.678 66.2541 111.047 67.8312C110.134 70.116 109.205 72.3965 108.383 74.7144C107.164 78.1534 104.907 80.701 101.861 82.5454C99.6715 83.8719 97.3892 85.0426 95.1491 86.2847C93.7021 87.0872 92.2007 87.8061 90.8218 88.714C87.8242 90.6863 87.1813 94.4038 89.2893 97.3458C90.3886 98.8812 91.6994 100.24 93.2767 101.282C93.9868 101.751 94.8152 102.04 95.5927 102.405C96.1121 102.647 96.6566 102.843 97.1519 103.128C97.4478 103.298 97.6705 103.6 97.8957 103.916C94.6841 103.063 91.5043 103.013 88.3221 104C88.3885 103.368 88.5559 103.208 90.1091 102.273C89.8701 101.906 89.6932 101.475 89.3834 101.189C88.5266 100.402 87.6645 99.601 86.7128 98.9395C84.9189 97.6922 83.6772 96.0854 83.1327 93.9494C83.0516 93.6291 82.9972 93.301 82.9222 92.9346C81.0126 92.8101 79.1341 92.6882 77.2557 92.5655C77.2488 92.5394 77.2427 92.5133 77.2358 92.4872C78.2764 92.1747 79.3179 91.8631 80.3586 91.5506C80.3646 91.5054 80.3715 91.4601 80.3784 91.4148C79.8952 91.3043 79.4163 91.152 78.9271 91.091C77.1521 90.8691 75.3944 91.0963 73.6497 91.3931C68.293 92.3026 63.0984 93.8511 57.9652 95.598C53.6525 97.0655 49.3856 98.6696 45.098 100.214C45.0177 100.242 44.9357 100.266 44.8141 100.305C44.7951 100.068 44.7787 99.8508 44.7571 99.5836C43.5241 100.301 42.228 100.631 40.8509 100.595C40.24 100.579 39.6308 100.511 39.0207 100.466C39.0138 100.425 39.0069 100.384 39 100.343C40.139 99.4687 41.278 98.5939 42.5223 97.6382H40.2236C40.2175 97.6043 40.2106 97.5703 40.2046 97.5364C48.4649 93.2453 56.7252 88.9542 64.9864 84.6631C64.9778 84.6205 64.97 84.5778 64.9622 84.5352H59.6961C59.6901 84.5003 59.684 84.4655 59.678 84.4298C59.7772 84.3559 59.8721 84.2758 59.9757 84.2088C68.5553 78.7183 77.1323 73.2243 85.717 67.7416C88.4903 65.9703 91.3991 64.4506 94.4312 63.1859C96.0785 62.4991 97.5238 61.5539 98.8069 60.3136C99.7094 59.4414 100.669 58.6293 101.61 57.7972C102.937 56.623 104.43 55.703 105.996 54.8962C108.783 53.46 111.47 53.7864 113.908 55.6142C116.005 57.1853 117.945 58.9679 119.954 60.6591C119.974 60.6748 119.978 60.7087 120 60.7583Z" fill="white"/>
    <defs>
        <linearGradient id="paint0_linear_4475_1827" x1="79.5" y1="0" x2="79.5" y2="159" gradientUnits="userSpaceOnUse">
            <stop/>
            <stop offset="1" stop-color="#D32D79"/>
        </linearGradient>
    </defs>
</svg>
