<svg width="159" height="159" viewBox="0 0 159 159" fill="none" xmlns="http://www.w3.org/2000/svg">
    <rect width="159" height="159" fill="url(#paint0_linear_4867_2046)"/>
    <path d="M80.0763 88.8909C79.4027 88.8909 63.4161 88.7511 51.1872 76.5177C50.9282 76.261 50.6762 75.9998 50.4287 75.7387C47.867 73.0395 46.6526 69.827 46.9092 66.4519C47.1384 63.4731 48.5132 60.5883 50.7701 58.3245C53.0271 56.0606 55.9211 54.6904 58.8975 54.4636C62.016 54.2344 64.9971 55.2473 67.5657 57.424C67.8429 54.0695 69.2269 51.2374 71.6007 49.2027C73.8668 47.2573 76.8707 46.1873 80.0787 46.1873C83.2865 46.1873 86.2905 47.2573 88.5565 49.2027C90.9281 51.2397 92.3144 54.0695 92.5916 57.424C95.1602 55.2473 98.1413 54.216 101.26 54.4636C104.238 54.6927 107.123 56.0675 109.385 58.3245C111.646 60.5815 113.021 63.4754 113.246 66.4519C113.505 69.827 112.288 73.0395 109.729 75.7432C109.481 76.0044 109.229 76.2657 108.97 76.5223C96.739 88.7511 80.7523 88.8909 80.0763 88.8909ZM59.782 56.968C57.0095 56.968 54.4065 58.258 52.5551 60.1071C49.2281 63.4365 47.7158 69.206 52.2618 74.011C52.494 74.2569 52.7308 74.5006 52.9721 74.7418C64.4701 86.2375 79.9251 86.3705 80.0787 86.3705C80.2322 86.3705 95.7193 86.21 107.187 74.7418C107.43 74.4991 107.667 74.2554 107.898 74.011C112.444 69.1992 110.931 63.4365 107.604 60.1071C104.278 56.7778 98.5056 55.2655 93.6938 59.8138C93.4479 60.0445 93.2042 60.2813 92.9628 60.5242C92.7772 60.7098 92.5962 60.8999 92.4174 61.0901L90.0276 63.6243L90.1215 60.146C90.1215 59.8803 90.1377 59.6168 90.1377 59.3487C90.1377 59.005 90.1377 58.6614 90.1238 58.329C89.9406 51.7186 84.7919 48.7054 80.0832 48.7054C75.3745 48.7054 70.2304 51.7163 70.0449 58.329C70.0449 58.6659 70.0311 59.0165 70.0311 59.3487C70.0311 59.61 70.0311 59.8666 70.0449 60.1255L70.1389 63.6243L67.7466 61.1038C67.5657 60.9114 67.3823 60.7189 67.1945 60.5287C66.9516 60.2858 66.7079 60.0491 66.4635 59.8184C64.3211 57.786 61.9954 56.968 59.782 56.968Z" fill="#00501E"/>
    <path d="M78.4611 75.5415H76.628C76.628 72.8124 73.97 70.5898 70.7072 70.5898C67.4443 70.5898 64.7864 72.8124 64.7864 75.5415H62.9533C62.9533 71.7997 66.4315 68.7568 70.7072 68.7568C74.9827 68.7568 78.4611 71.7997 78.4611 75.5415Z" fill="#00501E"/>
    <path d="M97.0991 75.4659H95.266C95.266 72.737 92.6104 70.5166 89.3452 70.5166C86.0801 70.5166 83.4244 72.737 83.4244 75.4659H81.5913C81.5913 71.7265 85.0695 68.6835 89.3452 68.6835C93.6208 68.6835 97.0991 71.7265 97.0991 75.4659Z" fill="#00501E"/>
    <path d="M72.8178 75.5802C74.2744 75.5802 75.4552 74.3995 75.4552 72.9429C75.4552 71.4864 74.2744 70.3055 72.8178 70.3055C71.3613 70.3055 70.1806 71.4864 70.1806 72.9429C70.1806 74.3995 71.3613 75.5802 72.8178 75.5802Z" fill="#00501E"/>
    <path d="M91.3317 75.5802C92.7882 75.5802 93.969 74.3995 93.969 72.9429C93.969 71.4864 92.7882 70.3055 91.3317 70.3055C89.8751 70.3055 88.6943 71.4864 88.6943 72.9429C88.6943 74.3995 89.8751 75.5802 91.3317 75.5802Z" fill="#00501E"/>
    <path d="M80.0698 82.2802C77.9091 82.2802 75.9064 81.1689 74.9715 79.4504L76.5756 78.5751C77.1965 79.7207 78.5644 80.4471 80.0652 80.4471C81.566 80.4471 82.9362 79.7116 83.5549 78.5751L85.1588 79.4504C84.2331 81.1689 82.2375 82.2802 80.0698 82.2802Z" fill="#00501E"/>
    <path d="M112.921 107.689C108.328 109.84 103.15 110.404 98.2012 109.293C94.1051 108.385 90.3447 106.349 87.3449 103.416C89.244 104.203 91.2811 104.603 93.3367 104.594C96.8911 104.594 100.358 103.489 103.256 101.432L101.785 99.3832C97.8186 102.238 92.3629 102.926 88.0575 100.98C83.8094 99.067 81.4126 94.9723 81.2591 89.4204V87.6309H78.7386V87.9471V89.4067C78.592 94.9654 76.1906 99.0647 71.938 100.98C67.6326 102.921 62.1676 102.243 58.2105 99.3764L56.7418 101.425C59.6382 103.483 63.103 104.59 66.6564 104.591C68.7121 104.601 70.7492 104.201 72.6482 103.414C69.6493 106.347 65.8896 108.383 61.7941 109.291C56.8455 110.402 51.6679 109.838 47.0746 107.687L46 109.967C49.3732 111.55 53.0544 112.369 56.7807 112.366C58.653 112.366 60.5196 112.16 62.3464 111.749C67.9519 110.505 72.9594 107.372 76.5297 102.875L76.5459 102.855C77.3836 101.755 78.1192 100.582 78.7433 99.3488V112.32H81.2637V99.3672C81.8867 100.594 82.62 101.762 83.4542 102.857L83.4703 102.877C87.0403 107.374 92.0468 110.507 97.6513 111.752C99.4781 112.162 101.345 112.369 103.217 112.368C106.944 112.372 110.626 111.553 114 109.969L112.921 107.689Z" fill="#00501E"/>
    <defs>
        <linearGradient id="paint0_linear_4867_2046" x1="79.5" y1="0" x2="79.5" y2="159" gradientUnits="userSpaceOnUse">
            <stop stop-color="white"/>
            <stop offset="1" stop-color="#BDFC5A"/>
        </linearGradient>
    </defs>
</svg>
