<svg width="159" height="159" viewBox="0 0 159 159" fill="none" xmlns="http://www.w3.org/2000/svg">
    <rect width="159" height="159" fill="url(#paint0_linear_3070_1205)"/>
    <path d="M86.989 46C73.7476 46 63 57.0973 63 70.7695C63 70.7923 63 70.8151 63 70.8151C63 70.8379 63 70.8379 63 70.8606C63.0441 71.4987 63.5517 72 64.1917 72H109.808C110.426 72 110.956 71.4987 111 70.8606C111 70.8379 111 70.8379 111 70.8151C111 70.7923 111 70.7695 111 70.7695C110.978 57.0973 100.252 46 86.989 46Z" fill="#53CBC8"/>
    <path d="M45.5419 98.516C46.347 98.516 46.9997 97.8633 46.9997 97.0582C46.9997 96.2532 46.347 95.6005 45.5419 95.6005C44.7369 95.6005 44.0842 96.2532 44.0842 97.0582C44.0842 97.8633 44.7369 98.516 45.5419 98.516Z" fill="#E1147B"/>
    <path d="M108.159 88.9731H59.1704C58.0881 88.9731 57.3813 90.1437 57.9114 91.0935C57.9114 91.1156 57.9335 91.1155 57.9335 91.1376C58.1765 91.6015 58.6624 91.8886 59.1925 91.8886H108.136C108.667 91.8886 109.152 91.6015 109.395 91.1376C109.395 91.1155 109.417 91.1156 109.417 91.0935C109.948 90.1437 109.241 88.9731 108.159 88.9731Z" fill="#E1147B"/>
    <path d="M114.673 75.7218H59.1692C58.352 75.7218 57.6894 76.4286 57.7335 77.2458C57.7335 77.2679 57.7335 77.2679 57.7335 77.29C57.7777 78.0409 58.4182 78.6372 59.1692 78.6372H114.673C115.446 78.6372 116.064 78.0409 116.109 77.29C116.109 77.2679 116.109 77.2679 116.109 77.2458C116.153 76.4286 115.49 75.7218 114.673 75.7218Z" fill="#E1147B"/>
    <path d="M93.7573 108.852H68.7552C67.2313 108.852 66.7675 110.884 68.1147 111.568C68.1368 111.591 68.181 111.591 68.2031 111.613C68.4019 111.723 68.6227 111.767 68.8436 111.767H93.669C93.8898 111.767 94.1107 111.723 94.3095 111.613C94.3316 111.591 94.3757 111.591 94.3978 111.568C95.7672 110.884 95.2813 108.852 93.7573 108.852Z" fill="#E1147B"/>
    <path d="M109.041 102.226H84.0387C82.5147 102.226 82.0509 104.258 83.3982 104.943C83.4203 104.965 83.4644 104.965 83.4865 104.987C83.6853 105.097 83.9062 105.142 84.127 105.142H108.952C109.173 105.142 109.394 105.097 109.593 104.987C109.615 104.965 109.659 104.965 109.681 104.943C111.051 104.258 110.565 102.226 109.041 102.226Z" fill="#E1147B"/>
    <path d="M74.9375 98.0496C74.9154 98.0275 74.9154 98.0275 74.8933 98.0054C74.0319 97.0778 74.6945 95.598 75.9534 95.598H116.549C117.808 95.598 118.47 97.0999 117.609 98.0054C117.587 98.0275 117.587 98.0275 117.565 98.0496C117.3 98.3367 116.902 98.5134 116.505 98.5134H75.9976C75.6001 98.5134 75.2246 98.3588 74.9375 98.0496Z" fill="#E1147B"/>
    <path d="M50.7534 95.598H70.1455C71.6695 95.598 72.1333 97.6299 70.786 98.3146C70.7639 98.3367 70.7197 98.3367 70.6976 98.3588C70.4989 98.4692 70.278 98.5134 70.0571 98.5134H50.8638C50.643 98.5134 50.4221 98.4692 50.2233 98.3588C50.2012 98.3367 50.1571 98.3367 50.135 98.3146C48.7656 97.6299 49.2515 95.598 50.7534 95.598Z" fill="#E1147B"/>
    <path d="M53.9355 78.6372C54.7406 78.6372 55.3932 77.9846 55.3932 77.1795C55.3932 76.3744 54.7406 75.7218 53.9355 75.7218C53.1304 75.7218 52.4778 76.3744 52.4778 77.1795C52.4778 77.9846 53.1304 78.6372 53.9355 78.6372Z" fill="#E1147B"/>
    <path d="M89.8485 84.2026C89.8485 84.1805 89.8485 84.1805 89.8706 84.1584C90.1136 83.2528 89.4289 82.3473 88.4791 82.3473H47.8839C46.9342 82.3473 46.2495 83.2528 46.4924 84.1584C46.4924 84.1805 46.4924 84.1805 46.5145 84.2026C46.6912 84.821 47.2434 85.2627 47.906 85.2627H88.4571C89.1197 85.2627 89.6939 84.8431 89.8485 84.2026Z" fill="#E1147B"/>
    <path d="M42.6491 85.2627C43.4542 85.2627 44.1068 84.6101 44.1068 83.805C44.1068 82.9999 43.4542 82.3473 42.6491 82.3473C41.844 82.3473 41.1914 82.9999 41.1914 83.805C41.1914 84.6101 41.844 85.2627 42.6491 85.2627Z" fill="#E1147B"/>
    <path d="M53.9355 91.8886C54.7406 91.8886 55.3932 91.2359 55.3932 90.4309C55.3932 89.6258 54.7406 88.9731 53.9355 88.9731C53.1304 88.9731 52.4778 89.6258 52.4778 90.4309C52.4778 91.2359 53.1304 91.8886 53.9355 91.8886Z" fill="#E1147B"/>
    <path d="M78.8276 105.142C79.6327 105.142 80.2853 104.489 80.2853 103.684C80.2853 102.879 79.6327 102.226 78.8276 102.226C78.0225 102.226 77.3699 102.879 77.3699 103.684C77.3699 104.489 78.0225 105.142 78.8276 105.142Z" fill="#E1147B"/>
    <path d="M63.5422 111.767C64.3473 111.767 64.9999 111.115 64.9999 110.31C64.9999 109.504 64.3473 108.852 63.5422 108.852C62.7371 108.852 62.0845 109.504 62.0845 110.31C62.0845 111.115 62.7371 111.767 63.5422 111.767Z" fill="#E1147B"/>
    <defs>
        <linearGradient id="paint0_linear_3070_1205" x1="79.5" y1="0" x2="79.5" y2="159" gradientUnits="userSpaceOnUse">
            <stop stop-color="#2A1857"/>
            <stop offset="1" stop-color="#1C102E"/>
        </linearGradient>
    </defs>
</svg>
