<svg width="158" height="158" viewBox="0 0 158 158" fill="none" xmlns="http://www.w3.org/2000/svg">
    <rect width="158" height="158" fill="url(#paint0_linear_3070_1169)"/>
    <path d="M99.9545 48.0324L85.7952 69.0687C84.8161 70.5013 86.699 72.2355 88.0547 71.0291L101.988 58.8899C102.365 58.5883 102.892 58.8145 102.892 59.3423V97.2679C102.892 97.7957 102.214 98.0219 101.913 97.6449L59.7362 47.1276C58.3805 45.4689 56.4223 44.5641 54.2381 44.5641H52.7318C48.8155 44.5641 45.5769 47.8062 45.5769 51.8024V105.185C45.5769 109.181 48.8155 112.423 52.8072 112.423C55.2926 112.423 57.6273 111.141 58.983 108.955L73.1423 87.9184C74.1214 86.4859 72.2385 84.7517 70.8828 85.9581L56.9495 98.0219C56.5729 98.3235 56.0457 98.0973 56.0457 97.5695V59.7193C56.0457 59.1915 56.7235 58.9653 57.0248 59.3423L99.2013 109.859C100.557 111.518 102.59 112.423 104.699 112.423H106.206C110.197 112.423 113.436 109.181 113.436 105.185V51.8024C113.436 47.8062 110.197 44.5641 106.206 44.5641C103.645 44.5641 101.31 45.8459 99.9545 48.0324Z" fill="white"/>
    <defs>
        <linearGradient id="paint0_linear_3070_1169" x1="79" y1="0" x2="79" y2="158" gradientUnits="userSpaceOnUse">
            <stop stop-color="white"/>
            <stop offset="1" stop-color="#898989"/>
        </linearGradient>
    </defs>
</svg>
