<svg width="159" height="159" viewBox="0 0 159 159" fill="none" xmlns="http://www.w3.org/2000/svg">
    <rect width="159" height="159" fill="url(#paint0_linear_3293_1061)"/>
    <path d="M80.0858 58.9328C87.1726 58.9328 92.9177 55.5899 92.9177 51.4664C92.9177 47.3428 87.1726 44 80.0858 44C72.9989 44 67.2539 47.3428 67.2539 51.4664C67.2539 55.5899 72.9989 58.9328 80.0858 58.9328Z" fill="#E6007A"/>
    <path d="M80.0858 115.17C87.1726 115.17 92.9177 111.827 92.9177 107.704C92.9177 103.58 87.1726 100.237 80.0858 100.237C72.9989 100.237 67.2539 103.58 67.2539 107.704C67.2539 111.827 72.9989 115.17 80.0858 115.17Z" fill="#E6007A"/>
    <path d="M62.2007 69.2592C65.7442 63.1218 65.7217 56.475 62.1506 54.4132C58.5795 52.3515 52.812 55.6554 49.2686 61.7928C45.7252 67.9302 45.7476 74.5769 49.3187 76.6387C52.8898 78.7005 58.6573 75.3966 62.2007 69.2592Z" fill="#E6007A"/>
    <path d="M110.903 97.3778C114.447 91.2404 114.424 84.5936 110.853 82.5318C107.282 80.4701 101.514 83.774 97.971 89.9114C94.4276 96.0488 94.45 102.696 98.0211 104.757C101.592 106.819 107.36 103.515 110.903 97.3778Z" fill="#E6007A"/>
    <path d="M62.1506 104.757C65.7217 102.695 65.7442 96.0484 62.2007 89.911C58.6573 83.7736 52.8898 80.4697 49.3187 82.5315C45.7476 84.5932 45.7252 91.24 49.2686 97.3774C52.812 103.515 58.5795 106.819 62.1506 104.757Z" fill="#E6007A"/>
    <path d="M110.853 76.6389C114.424 74.5772 114.446 67.9304 110.903 61.793C107.359 55.6556 101.592 52.3517 98.0208 54.4135C94.4497 56.4753 94.4272 63.122 97.9706 69.2594C101.514 75.3968 107.282 78.7007 110.853 76.6389Z" fill="#E6007A"/>
    <defs>
        <linearGradient id="paint0_linear_3293_1061" x1="79.5" y1="0" x2="79.5" y2="159" gradientUnits="userSpaceOnUse">
            <stop stop-color="#101010"/>
            <stop offset="1" stop-color="#252F36"/>
        </linearGradient>
    </defs>
</svg>
