<svg width="159" height="159" viewBox="0 0 159 159" fill="none" xmlns="http://www.w3.org/2000/svg">
    <rect width="159" height="159" fill="url(#paint0_linear_6078_1722)"/>
    <g clip-path="url(#clip0_6078_1722)">
        <path fill-rule="evenodd" clip-rule="evenodd" d="M79.8395 119C85.1702 119 90.4061 117.924 95.2928 115.834C100.179 113.745 104.59 110.674 108.239 106.844L107.7 106.274C106.335 104.755 104.4 103.869 102.369 103.742C100.338 103.615 98.339 104.312 96.784 105.673L95.6417 106.686C92.4685 109.472 88.3435 110.959 84.0915 110.801C79.8711 110.643 75.8413 108.87 72.8902 105.863C71.5258 104.47 69.6537 103.647 67.6862 103.615C65.719 103.584 63.815 104.312 62.3871 105.641L56.3898 111.244C63.1169 116.277 71.3671 119.031 79.8395 119ZM90.8502 98.962C94.0235 96.1765 98.1485 94.6571 102.401 94.7836C106.653 94.9102 110.683 96.6195 113.729 99.5951C117.473 93.1692 119.282 85.7936 118.964 78.3547C118.647 70.9155 116.204 63.73 111.888 57.6521C110.111 57.7471 108.43 58.4119 107.097 59.5831L105.954 60.5959C102.781 63.3816 98.6563 64.8695 94.4043 64.7112C90.1839 64.553 86.154 62.7803 83.203 59.773C81.8385 58.3802 79.9663 57.5571 77.999 57.5255C76.0316 57.4938 74.1278 58.2219 72.6999 59.5514L63.5612 68.0034L57.4052 61.4823L66.5121 52.9672C69.6537 50.0232 73.8421 48.4088 78.1893 48.5038C82.5049 48.5987 86.6301 50.3714 89.6445 53.4419C91.0089 54.8348 92.8177 55.6262 94.7532 55.6895C96.6889 55.7528 98.5611 55.088 100.021 53.8219L101.163 52.8089C102.369 51.7642 103.702 50.8779 105.13 50.2131C99.8302 45.7498 93.4204 42.7742 86.5982 41.5713C79.7443 40.4001 72.7316 41.0332 66.2266 43.4389C59.6899 45.8447 53.9464 49.9283 49.5675 55.278C45.1568 60.6278 42.2693 67.022 41.1587 73.8595C44.3001 72.4984 47.7906 72.1186 51.1541 72.7833C54.5176 73.448 57.6273 75.0941 60.0072 77.5315C61.34 78.8926 63.1486 79.7474 65.0525 79.8741C66.9564 80.0006 68.8604 79.4624 70.4151 78.2913L76.2537 73.7645C79.3316 71.3904 83.1395 70.1243 87.0107 70.2193C90.9138 70.3142 94.6262 71.7703 97.5773 74.3343L108.112 83.4828L102.242 90.2253L91.707 81.0769C90.3426 79.9057 88.6291 79.2092 86.8204 79.1777C85.0116 79.1143 83.2665 79.7158 81.8385 80.8236L75.9999 85.3503C72.7316 87.8828 68.6382 89.1173 64.5132 88.8325C60.388 88.5475 56.5167 86.7433 53.6291 83.7993C52.2013 82.343 50.2656 81.4885 48.2031 81.4251C46.1722 81.3618 44.1732 82.0898 42.65 83.4828L41 85.0022C41.9519 92.3778 44.9982 99.3419 49.8213 105.04L56.2311 99.0887C59.3726 96.1448 63.5612 94.5303 67.9084 94.6252C72.2239 94.7202 76.3489 96.493 79.3634 99.5635C80.7279 100.925 82.5367 101.748 84.4723 101.811C86.4079 101.874 88.28 101.21 89.7396 99.9434L90.8502 98.962Z" fill="url(#paint1_linear_6078_1722)"/>
    </g>
    <defs>
        <linearGradient id="paint0_linear_6078_1722" x1="79.5" y1="0" x2="79.5" y2="159" gradientUnits="userSpaceOnUse">
            <stop stop-color="#E4E1DC"/>
            <stop offset="1" stop-color="#E0DCD6"/>
        </linearGradient>
        <linearGradient id="paint1_linear_6078_1722" x1="80" y1="41" x2="80" y2="119" gradientUnits="userSpaceOnUse">
            <stop stop-color="#8A375E"/>
            <stop offset="1" stop-color="#CC4A4B"/>
        </linearGradient>
        <clipPath id="clip0_6078_1722">
            <rect width="78" height="78" fill="white" transform="translate(41 41)"/>
        </clipPath>
    </defs>
</svg>
