<svg width="159" height="159" viewBox="0 0 159 159" fill="none" xmlns="http://www.w3.org/2000/svg">
    <rect width="159" height="159" fill="url(#paint0_linear_4915_1907)"/>
    <g clip-path="url(#clip0_4915_1907)">
        <path d="M54.2152 61.4266C58.7458 61.4266 62.6441 62.3056 65.8059 64.0394C68.8286 65.697 71.6742 68.379 74.4294 70.9746C79.0122 75.2935 83.7513 79.7577 89.4285 79.7577C89.4807 79.7577 89.5328 79.7577 89.5814 79.7577C93.8967 79.6989 96.5129 74.9612 98.8199 70.7808C100.033 68.5832 101.082 66.6868 102.312 65.5551C104.344 63.6864 106.537 62.5478 108.826 62.1671L108.997 62.1395V55.0036C108.997 55.0036 104.838 52.9825 100.105 57.8032C97.0688 60.8971 94.6402 72.0128 88.1361 72.1131C79.45 72.2481 73.5434 60.7517 66.4764 56.457C59.0967 51.9686 49.0209 55.0036 49.0209 55.0036V61.7969C50.7755 61.5511 52.5231 61.4266 54.2152 61.4266Z" fill="white"/>
        <path d="M108.993 75.3662L109 74.5806V72.4489C107.704 72.9403 106.29 73.7293 104.831 74.9751C101.162 78.107 98.2327 89.3542 90.3805 89.4546C79.8947 89.5895 72.7617 77.9582 64.2284 73.6116C59.2739 71.0888 53.3152 70.9158 49 71.2618V75.3662L49.0069 74.5806C49.132 91.5206 62.5086 106.003 79.0017 106.003C95.4949 106.003 108.871 92.3096 108.997 75.3662H108.993Z" fill="white"/>
        <path d="M64.7044 72.6841C67.9461 74.3349 71.0105 77.0169 73.9708 79.6089C78.9184 83.9382 84.0362 88.4163 90.1998 88.4163C90.2554 88.4163 90.311 88.4163 90.3666 88.4163C95.0814 88.354 97.9061 83.6025 100.397 79.4082C101.704 77.2107 102.829 75.3142 104.153 74.1861C105.567 72.9783 107.075 72.0647 108.628 71.4764L109 71.3345V63.1846C107.308 63.4649 105.223 64.2886 103.021 66.313C99.6121 69.445 96.8916 80.6921 89.5953 80.7925C79.8564 80.9275 73.2272 69.2961 65.302 64.9495C59.802 61.9284 52.9678 62.2744 49 62.8455V70.2201C50.1118 70.1336 51.2202 70.0886 52.2938 70.0886C57.1475 70.0886 61.3203 70.9642 64.7044 72.6876V72.6841Z" fill="white"/>
    </g>
    <defs>
        <linearGradient id="paint0_linear_4915_1907" x1="-6.5" y1="23.5001" x2="205" y2="116.5" gradientUnits="userSpaceOnUse">
            <stop stop-color="#D6B4FA"/>
            <stop offset="1" stop-color="#83FCE5"/>
        </linearGradient>
        <clipPath id="clip0_4915_1907">
            <rect width="60" height="52" fill="white" transform="translate(49 54)"/>
        </clipPath>
    </defs>
</svg>
